<svg width="18" height="17" viewBox="0 0 18 17" fill="none" xmlns="http://www.w3.org/2000/svg">
<path d="M15.1538 4.07629H2.84615C1.82655 4.07629 1 4.90285 1 5.92245V13.3071C1 14.3267 1.82655 15.1532 2.84615 15.1532H15.1538C16.1734 15.1532 17 14.3267 17 13.3071V5.92245C17 4.90285 16.1734 4.07629 15.1538 4.07629Z" stroke="#CC413D" stroke-width="1.9" stroke-linejoin="round"/>
<path d="M14.9754 4.0763V2.92246C14.9753 2.63946 14.9127 2.35997 14.7922 2.10393C14.6717 1.84789 14.4961 1.62161 14.278 1.44124C14.06 1.26086 13.8048 1.13084 13.5307 1.06044C13.2566 0.99005 12.9703 0.981019 12.6923 1.034L2.56308 2.76284C2.1232 2.84667 1.72637 3.08137 1.44102 3.42647C1.15567 3.77157 0.999697 4.20543 1 4.65323V6.53784" stroke="#CC413D" stroke-width="1.9" stroke-linejoin="round"/>
<path d="M13.3077 10.8456C13.0643 10.8456 12.8263 10.7734 12.6239 10.6382C12.4215 10.5029 12.2637 10.3107 12.1706 10.0858C12.0774 9.8609 12.0531 9.61344 12.1006 9.37469C12.148 9.13595 12.2653 8.91664 12.4374 8.74452C12.6095 8.57239 12.8288 8.45517 13.0676 8.40768C13.3063 8.36019 13.5538 8.38457 13.7787 8.47772C14.0036 8.57087 14.1958 8.72862 14.331 8.93102C14.4663 9.13342 14.5384 9.37138 14.5384 9.6148C14.5384 9.94122 14.4088 10.2543 14.178 10.4851C13.9471 10.7159 13.6341 10.8456 13.3077 10.8456Z" fill="#CC413D"/>
</svg>
