<svg xmlns="http://www.w3.org/2000/svg" fill="none" viewBox="0 0 16 16" id="Pin-1--Streamline-Core-Remix" height="16" width="16"><desc>Pin 1 Streamline Icon: https://streamlinehq.com</desc><g id="Interface Essential/Edit/pin-1--pin-push-thumbtack"><path id="Union" fill="#CC413D" fill-rule="evenodd" d="M11.089874285714286 0.08824925714285714C10.826365714285714 0.003983828571428571 10.547371428571427 -0.020348571428571428 10.273268571428572 0.017029942857142856c-0.2741142857142857 0.03737828571428571 -0.5364114285714285 0.13552319999999998 -0.7677257142857142 0.28726377142857146 -0.23123428571428573 0.15168685714285715 -0.4256685714285714 0.3531005714285714 -0.56912 0.5895325714285714l-0.00014857142857142855 0.00025142857142857145L7.197622857142857 3.7534285714285716l-4.8344685714285704 1.0767085714285713 -0.00002285714285714286 -0.00012571428571428572 -0.01312 0.003188571428571428c-0.2395885714285714 0.05813714285714285 -0.45956571428571424 0.17850285714285713 -0.6377028571428571 0.34893714285714283 -0.17813714285714286 0.17042285714285713 -0.30811428571428573 0.3848685714285714 -0.3767771428571428 0.6216457142857142 -0.06866285714285714 0.23677714285714285 -0.07358857142857143 0.48749714285714285 -0.014274285714285713 0.7267885714285713 0.05932571428571428 0.23929142857142857 0.18077714285714283 0.45867428571428565 0.35208 0.6359657142857142l-0.00006857142857142857 0.00006857142857142857 0.008251428571428571 0.008262857142857143 2.86216 2.8667999999999996L0.29288457142857144 14.292571428571428c-0.39051977142857136 0.3905142857142857 -0.39051154285714285 1.0236571428571428 0.00001828571428571428 1.4141714285714286 0.3905291428571428 0.3905142857142857 1.0236914285714285 0.3905142857142857 1.4142171428571428 0l4.249622857142857 -4.249714285714286 2.7533485714285715 2.7578285714285715c0.008525714285714284 0.00857142857142857 0.017257142857142856 0.016914285714285715 0.02619428571428571 0.02491428571428571 0.18012571428571428 0.16308571428571428 0.3992685714285714 0.2768 0.63624 0.33028571428571424 0.23697142857142856 0.05348571428571428 0.4837257142857143 0.04491428571428571 0.7164114285714285 -0.0248 0.23268571428571427 -0.06982857142857142 0.44341714285714284 -0.1985142857142857 0.6118057142857142 -0.3736 0.16837714285714284 -0.1752 0.28872000000000003 -0.3907428571428571 0.34936 -0.625942857142857l0.00011428571428571428 0 0.0029828571428571426 -0.012457142857142856 1.1402857142857143 -4.776514285714286 2.9010285714285713 -1.6861371428571428 0.00011428571428571428 0.00011428571428571428 0.011314285714285714 -0.006925714285714286c0.23657142857142854 -0.14346285714285714 0.4380571428571428 -0.33795428571428565 0.5898285714285714 -0.5692685714285713 0.15177142857142856 -0.2313142857142857 0.24994285714285713 -0.4936114285714286 0.2873142857142857 -0.7677257142857142 0.03737142857142857 -0.27410285714285715 0.013028571428571428 -0.5531085714285714 -0.0713142857142857 -0.8166057142857143 -0.08422857142857143 -0.2634971428571428 -0.22628571428571428 -0.5048457142857142 -0.41577142857142857 -0.7063999999999999l-0.015314285714285714 -0.015817142857142856 -3.668571428571428 -3.668565714285714 -0.015885714285714284 -0.015333714285714286C11.594742857142856 0.314584 11.353371428571428 0.1725142857142857 11.089874285714286 0.08824925714285714ZM10.466285714285712 1.432502857142857c0.06325714285714286 -0.008628571428571428 0.1276342857142857 -0.003017142857142857 0.18844571428571427 0.016434285714285714 0.058148571428571424 0.018594285714285713 0.11162285714285715 0.04939428571428571 0.1568685714285714 0.09028571428571427l3.6491999999999996 3.6492571428571425c0.04091428571428571 0.045245714285714285 0.07177142857142856 0.09870857142857142 0.09028571428571427 0.15685714285714286 0.019542857142857143 0.06081142857142857 0.02514285714285714 0.12518857142857143 0.016457142857142854 0.18844571428571427 -0.00857142857142857 0.06325714285714286 -0.0312 0.12378285714285714 -0.06628571428571428 0.17716571428571426 -0.034057142857142855 0.051977142857142854 -0.07908571428571427 0.09588571428571428 -0.13177142857142857 0.12871999999999997L11.210925714285713 7.675508571428571c-0.16904 0.09825142857142857 -0.29042285714285715 0.2615085714285714 -0.3358171428571428 0.45167999999999997L9.673977142857142 13.1584 2.7372799999999997 6.210388571428571l5.067862857142857 -1.1286971428571428c0.18973714285714285 -0.04226285714285714 0.3540457142857143 -0.16001142857142855 0.45504 -0.3261028571428571l1.897142857142857 -3.1199999999999997 0.00042285714285714284 -0.0006971428571428571c0.033108571428571425 -0.054582857142857134 0.07798857142857142 -0.10108571428571428 0.13137142857142856 -0.13610285714285714s0.11390857142857141 -0.05765714285714286 0.17716571428571426 -0.06628571428571428Z" clip-rule="evenodd" stroke-width="1"></path></g></svg>