<svg width="16" height="16" viewBox="0 0 18 18" fill="none" xmlns="http://www.w3.org/2000/svg">
<path d="M10.7778 16.4667V11.3111C10.7778 11.0165 11.0165 10.7778 11.3111 10.7778H16.4667C16.7613 10.7778 17 11.0165 17 11.3111V16.4667C17 16.7613 16.7613 17 16.4667 17H11.3111C11.0165 17 10.7778 16.7613 10.7778 16.4667Z" stroke="#CC413D" stroke-width="2"/>
<path d="M1 16.4667V11.3111C1 11.0165 1.23878 10.7778 1.53333 10.7778H6.6889C6.98345 10.7778 7.22224 11.0165 7.22224 11.3111V16.4667C7.22224 16.7613 6.98345 17 6.6889 17H1.53333C1.23878 17 1 16.7613 1 16.4667Z" stroke="#CC413D" stroke-width="2"/>
<path d="M10.7778 6.6889V1.53333C10.7778 1.23878 11.0165 1 11.3111 1H16.4667C16.7613 1 17 1.23878 17 1.53333V6.6889C17 6.98345 16.7613 7.22224 16.4667 7.22224H11.3111C11.0165 7.22224 10.7778 6.98345 10.7778 6.6889Z" stroke="#CC413D" stroke-width="2"/>
<path d="M1 6.6889V1.53333C1 1.23878 1.23878 1 1.53333 1H6.6889C6.98345 1 7.22224 1.23878 7.22224 1.53333V6.6889C7.22224 6.98345 6.98345 7.22224 6.6889 7.22224H1.53333C1.23878 7.22224 1 6.98345 1 6.6889Z" stroke="#CC413D" stroke-width="2"/>
</svg>
