<svg width="16" height="16" viewBox="0 0 20 20" fill="none" xmlns="http://www.w3.org/2000/svg">
<path d="M6.625 12.2484H1V17.8734" stroke="#CC413D" stroke-width="1.9" stroke-linecap="round" stroke-linejoin="round"/>
<path d="M18.127 13.3479C17.5313 15.0891 16.3775 16.5849 14.8448 17.6032C13.3121 18.6218 11.486 19.106 9.65002 18.9806C7.81417 18.8553 6.07087 18.1275 4.69072 16.9102C3.31057 15.693 2.37067 14.0544 2.01697 12.2484" stroke="#CC413D" stroke-width="1.9" stroke-linecap="round" stroke-linejoin="round"/>
<path d="M13.375 7.74834H19V2.12329" stroke="#CC413D" stroke-width="1.9" stroke-linecap="round" stroke-linejoin="round"/>
<path d="M1.87451 6.64724C2.47136 4.90708 3.62561 3.41246 5.15816 2.395C6.69086 1.37754 8.51636 0.89394 10.3518 1.01949C12.187 1.14489 13.9299 1.87225 15.3097 3.08876C16.6897 4.30527 17.6299 5.94313 17.9845 7.74825" stroke="#CC413D" stroke-width="1.9" stroke-linecap="round" stroke-linejoin="round"/>
</svg>
